<?xml version="1.0" encoding="UTF-8"?>
<svg width="1630px" height="222px" viewBox="0 0 1630 222" version="1.1" xmlns="http://www.w3.org/2000/svg" xmlns:xlink="http://www.w3.org/1999/xlink">
    <!-- Generator: Sketch 57.1 (83088) - https://sketch.com -->
    <title>billhop</title>
    <desc>Created with Sketch.</desc>
    <g id="Page-1" stroke="none" stroke-width="1" fill="none" fill-rule="evenodd">
        <g id="billhop" fill="#FFFFFF" fill-rule="nonzero">
            <g id="Shape-2" transform="translate(0.000000, -0.000000)">
                <path d="M1567.2,56.8 L1527.4,56.8 L1527.4,221.9 L1556.4,221.9 L1556.4,168.1 C1562.2,170 1567.4,170.9 1572.9,170.9 C1605.8,170.9 1629.70034,146.8 1629.70034,113.6 C1629.8,76.9 1607.6,56.8 1567.2,56.8 Z M1600.4,113.4 C1600.4,131.1 1588.3,144 1571.6,144 C1566.6,144 1561.4,142.9 1556.4,140.9 L1556.4,83.7 L1570.9,83.7 C1590.5,83.7 1600.4,93.7 1600.4,113.4 Z M1457.9,54.7 C1424.9,54.7 1399,79.8 1399,111.8 C1399,146.1 1423.8,170.9 1457.9,170.9 C1493.4,170.9 1518.2,146.6 1518.2,111.8 C1518.2,78.7 1492.9,54.7 1457.9,54.7 Z M1420.1,86.4 C1420,86.1 1420,85.8 1420.2,85.5 L1420.2,85.4 C1421.6,81.8 1433.4,76.2 1448.3,72.2 C1464.4,67.8 1478.2,67 1479.9,70.1 C1479.7,69.8 1479.5,69.6 1479.2,69.4 L1479.1,69.4 C1479.4,69.7 1479.7,69.9 1479.8,70.2 C1480.8,73.6 1468.4,80.1 1451.9,84.5 C1435.4,89 1421.1,89.8 1420.1,86.4 L1420.1,86.4 Z M1454.5,95.2 C1469.1,91.3 1480.7,86 1482.8,82.2 L1484,86.3 C1481.9,90.1 1470.4,95.9 1455.8,99.8 C1440.7,103.9 1427.5,103.5 1424.1,101 C1423.8,100 1422.8,96.8 1422.8,96.8 C1426.4,99.4 1439.4,99.3 1454.5,95.2 Z M1459,146.8 C1439.5,146.8 1423.7,131 1423.7,111.5 C1423.7,109.5 1423.9,107.5 1424.2,105.6 C1425.8,106.6 1435.3,110.7 1460.6,103.7 C1460.6,103.7 1468.9,101.3 1475.1,98.3 C1480.5,95.6 1485.4,92.4 1486.4,89.3 C1491.3,95.4 1494.3,103.1 1494.3,111.5 C1494.3,131 1478.5,146.8 1459,146.8 L1459,146.8 Z M1327.2,56.8 L1287.4,56.8 L1287.4,221.9 L1316.4,221.9 L1316.4,168.1 C1322.2,170 1327.4,170.9 1332.9,170.9 C1365.8,170.9 1389.70034,146.8 1389.70034,113.6 C1389.8,76.9 1367.6,56.8 1327.2,56.8 Z M1360.4,113.4 C1360.4,131.1 1348.3,144 1331.6,144 C1326.6,144 1321.4,142.9 1316.4,140.9 L1316.4,83.7 L1330.9,83.7 C1350.5,83.7 1360.4,93.7 1360.4,113.4 Z M1217.9,54.7 C1184.9,54.7 1159,79.8 1159,111.8 C1159,146.1 1183.8,170.9 1217.9,170.9 C1253.4,170.9 1278.2,146.6 1278.2,111.8 C1278.2,78.7 1252.9,54.7 1217.9,54.7 Z M1180.1,86.4 C1180,86.1 1180,85.8 1180.2,85.5 L1180.2,85.4 C1181.6,81.8 1193.4,76.2 1208.3,72.2 C1224.4,67.8 1238.2,67 1239.9,70.1 C1239.7,69.8 1239.5,69.6 1239.2,69.4 L1239.1,69.4 C1239.4,69.7 1239.7,69.9 1239.8,70.2 C1240.8,73.6 1228.4,80.1 1211.9,84.5 C1195.4,89 1181.1,89.8 1180.1,86.4 L1180.1,86.4 Z M1214.5,95.2 C1229.1,91.3 1240.7,86 1242.8,82.2 L1244,86.3 C1241.9,90.1 1230.4,95.9 1215.8,99.8 C1200.7,103.9 1187.5,103.5 1184.1,101 C1183.8,100 1182.8,96.8 1182.8,96.8 C1186.4,99.4 1199.4,99.3 1214.5,95.2 Z M1219,146.8 C1199.5,146.8 1183.7,131 1183.7,111.5 C1183.7,109.5 1183.9,107.5 1184.2,105.6 C1185.8,106.6 1195.3,110.7 1220.6,103.7 C1220.6,103.7 1228.9,101.3 1235.1,98.3 C1240.5,95.6 1245.4,92.4 1246.4,89.3 C1251.3,95.4 1254.3,103.1 1254.3,111.5 C1254.3,131 1238.5,146.8 1219,146.8 L1219,146.8 Z M1109.2,54.7 C1099.5,54.7 1089.9,58.4 1082,64.8 L1082,3 L1053,3 L1053,168.8 L1082,168.8 L1082,91.9 C1090.3,82.9 1096.2,79.5 1103.6,79.5 C1113.5,79.5 1119.7,87.5 1119.7,100.4 L1119.7,168.8 L1148.7,168.8 L1148.7,101.1 C1148.7,72.5 1133.6,54.7 1109.2,54.7 L1109.2,54.7 Z M981.9,54.7 C948.9,54.7 923,79.8 923,111.8 C923,146.1 947.8,170.9 981.9,170.9 C1017.4,170.9 1042.2,146.6 1042.2,111.8 C1042.2,78.7 1016.9,54.7 981.9,54.7 Z M944.1,86.4 C944,86.1 944,85.8 944.2,85.5 L944.2,85.4 C945.6,81.8 957.4,76.2 972.3,72.2 C988.4,67.8 1002.2,67 1003.9,70.1 C1003.7,69.8 1003.5,69.6 1003.2,69.4 L1003.1,69.4 C1003.4,69.7 1003.7,69.9 1003.8,70.2 C1004.8,73.6 992.4,80.1 975.9,84.5 C959.4,89 945.1,89.8 944.1,86.4 L944.1,86.4 Z M978.5,95.2 C993.1,91.3 1004.7,86 1006.8,82.2 L1008,86.3 C1005.9,90.1 994.4,95.9 979.8,99.8 C964.7,103.9 951.5,103.5 948.1,101 C947.8,100 946.8,96.8 946.8,96.8 C950.4,99.4 963.4,99.3 978.5,95.2 Z M983,146.8 C963.5,146.8 947.7,131 947.7,111.5 C947.7,109.5 947.9,107.5 948.2,105.6 C949.8,106.6 959.3,110.7 984.6,103.7 C984.6,103.7 992.9,101.3 999.1,98.3 C1004.5,95.6 1009.4,92.4 1010.4,89.3 C1015.3,95.4 1018.3,103.1 1018.3,111.5 C1018.3,131 1002.5,146.8 983,146.8 L983,146.8 Z M873.2,54.7 C863.5,54.7 853.9,58.4 846,64.8 L846,3 L817,3 L817,168.8 L846,168.8 L846,91.9 C854.3,82.9 860.2,79.5 867.6,79.5 C877.5,79.5 883.7,87.5 883.7,100.4 L883.7,168.8 L912.7,168.8 L912.7,101.1 C912.7,72.5 897.6,54.7 873.2,54.7 L873.2,54.7 Z M775.4,3 L804.4,3 L804.4,168.8 L775.4,168.8 L775.4,3 Z M705,53 C672,53 646.1,78.1 646.1,110.1 C646.1,144.4 670.9,169.2 705,169.2 C740.5,169.2 765.3,144.9 765.3,110.1 C765.3,77 740,53 705,53 Z M667.2,84.7 C667.1,84.4 667.1,84.1 667.3,83.8 L667.3,83.7 C668.7,80.1 680.5,74.5 695.4,70.5 C711.5,66.1 725.3,65.3 727,68.4 C726.8,68.1 726.6,67.9 726.3,67.7 L726.2,67.7 C726.5,68 726.8,68.2 726.9,68.5 C727.9,71.9 715.5,78.4 699,82.8 C682.5,87.3 668.2,88.1 667.2,84.7 L667.2,84.7 Z M701.6,93.5 C716.2,89.6 727.8,84.3 729.9,80.5 L731.1,84.6 C729,88.4 717.5,94.2 702.9,98.1 C687.8,102.2 674.6,101.8 671.2,99.3 C670.9,98.3 669.9,95.1 669.9,95.1 C673.5,97.7 686.5,97.6 701.6,93.5 Z M706.1,145.1 C686.6,145.1 670.8,129.3 670.8,109.8 C670.8,107.8 671,105.8 671.3,103.9 C672.9,104.9 682.4,109 707.7,102 C707.7,102 716,99.6 722.2,96.6 C727.6,93.9 732.5,90.7 733.5,87.6 C738.4,93.7 741.4,101.4 741.4,109.8 C741.4,129.3 725.6,145.1 706.1,145.1 L706.1,145.1 Z M607,3 L636,3 L636,168.8 L607,168.8 L607,3 Z M565.3,3 L594.3,3 L594.3,168.8 L565.3,168.8 L565.3,3 Z M494.9,53 C461.9,53 436,78.1 436,110.1 C436,144.4 460.8,169.2 494.9,169.2 C530.4,169.2 555.2,144.9 555.2,110.1 C555.2,77 529.9,53 494.9,53 Z M457.1,84.7 C457,84.4 457,84.1 457.2,83.8 L457.2,83.7 C458.6,80.1 470.4,74.5 485.3,70.5 C501.4,66.1 515.2,65.3 516.9,68.4 C516.7,68.1 516.5,67.9 516.2,67.7 L516.1,67.7 C516.4,68 516.7,68.2 516.8,68.5 C517.8,71.9 505.4,78.4 488.9,82.8 C472.4,87.3 458.1,88.1 457.1,84.7 L457.1,84.7 Z M491.5,93.5 C506.1,89.6 517.7,84.3 519.8,80.5 L521,84.6 C518.9,88.4 507.4,94.2 492.8,98.1 C477.7,102.2 464.5,101.8 461.1,99.3 C460.8,98.3 459.8,95.1 459.8,95.1 C463.4,97.7 476.4,97.6 491.5,93.5 Z M496,145.1 C476.5,145.1 460.7,129.3 460.7,109.8 C460.7,107.8 460.9,105.8 461.2,103.9 C462.8,104.9 472.3,109 497.6,102 C497.6,102 505.9,99.6 512.1,96.6 C517.5,93.9 522.4,90.7 523.4,87.6 C528.3,93.7 531.3,101.4 531.3,109.8 C531.3,129.3 515.5,145.1 496,145.1 L496,145.1 Z M396.9,3 L425.9,3 L425.9,168.8 L396.9,168.8 L396.9,3 Z M353.5,56.8 L382.5,56.8 L382.5,168.9 L353.5,168.9 L353.5,56.8 Z M368.1,13.1 C359,13.1 351.6,20.5 351.6,29.6 C351.6,38.7 359,46.1 368.1,46.1 C377.2,46.1 384.6,38.7 384.6,29.6 C384.6,20.5 377.2,13.1 368.1,13.1 Z M293.4,54.7 C284.7,54.7 276.6,56.7 269,60.8 L269,3 L240,3 L240,161.5 L242.4,162.6 C253.1,167.7 268.5,170.9 282.8,170.9 C319.6,170.9 342.4,147.8 342.4,110.6 C342.4,78.2 321.8,54.7 293.4,54.7 Z M270.1,140.9 L270.1,90 C277.3,83.8 282.3,81.7 289.4,81.7 C304.4,81.7 314,94.3 314,113.7 C314,130.9 302.7,143.1 286.6,143.1 C282,143.1 275.4,142.2 270.1,140.9 Z M169.9,53 C136.9,53 111,78.1 111,110.1 C111,144.4 135.8,169.2 169.9,169.2 C205.4,169.2 230.2,144.9 230.2,110.1 C230.2,77 204.9,53 169.9,53 Z M132.1,87.7 C132,87.4 132,87.1 132.2,86.8 L132.2,86.7 C133.6,83.1 145.4,77.5 160.3,73.5 C176.4,69.1 190.2,68.3 191.9,71.4 C191.7,71.1 191.5,70.9 191.2,70.7 L191.1,70.7 C191.4,71 191.7,71.2 191.8,71.5 C192.8,74.9 180.4,81.4 163.9,85.8 C147.4,90.3 133.1,91.1 132.1,87.7 L132.1,87.7 Z M166.5,93.5 C181.1,89.6 192.7,84.3 194.8,80.5 L196,84.6 C193.9,88.4 182.4,94.2 167.8,98.1 C152.7,102.2 139.5,101.8 136.1,99.3 C135.8,98.3 134.8,95.1 134.8,95.1 C138.4,97.7 151.4,97.6 166.5,93.5 Z M171,145.1 C151.5,145.1 135.7,129.3 135.7,109.8 C135.7,107.8 135.9,105.8 136.2,103.9 C137.8,104.9 147.3,109 172.6,102 C172.6,102 180.9,99.6 187.1,96.6 C192.5,93.9 197.4,90.7 198.4,87.6 C203.3,93.7 206.3,101.4 206.3,109.8 C206.3,129.3 190.5,145.1 171,145.1 L171,145.1 Z M53.4,51.7 C44.7,51.7 36.6,53.7 29,57.8 L29,4.26325641e-14 L0,4.26325641e-14 L0,158.5 L2.4,159.6 C13.1,164.7 28.5,167.9 42.8,167.9 C79.6,167.9 102.4,144.8 102.4,107.6 C102.4,75.2 81.8,51.7 53.4,51.7 Z M30.1,137.9 L30.1,87 C37.3,80.8 42.3,78.7 49.4,78.7 C64.4,78.7 74,91.3 74,110.7 C74,127.9 62.7,140.1 46.6,140.1 C42,140.1 35.4,139.2 30.1,137.9 Z" id="Shape"></path>
            </g>
        </g>
    </g>
</svg>